<svg xmlns="http://www.w3.org/2000/svg" width="454.003" height="323.641" viewBox="0 0 454.003 323.641">
  <g id="freepik--Character--inject-47" transform="translate(-110.64 -145.239)">
    <path id="Path_83" data-name="Path 83" d="M291.158,248.5c4.953,2.681,43.45,47.223,33.18,68.4-7.6,15.585-55.072,22.832-55.072,22.832l-5.849-13.294s34.76-12.624,36.811-18.157S263.22,273.3,263.22,273.3Z" transform="translate(79.222 58.545)" fill="#edbb2d"/>
    <path id="Path_84" data-name="Path 84" d="M291.158,248.5c4.953,2.681,43.45,47.223,33.18,68.4-7.6,15.585-55.072,22.832-55.072,22.832l-5.849-13.294s34.76-12.624,36.811-18.157S263.22,273.3,263.22,273.3Z" transform="translate(79.222 58.545)" fill="#fff" opacity="0.3"/>
    <path id="Path_85" data-name="Path 85" d="M283.54,292.63c-1.246,5.174-4.862,9.164-12.245,11.315l4.558,9.46-.942.2-7.2-14.338Z" transform="translate(81.553 83.192)" opacity="0.2"/>
    <path id="Path_86" data-name="Path 86" d="M277.4,295l10.072,20.074-19.4,4.5a2.024,2.024,0,0,0-1.333.979,2.12,2.12,0,0,0-.187,1.671l2.309,7.309a3.156,3.156,0,0,1-1.291,3.538l-1.519.935a2.05,2.05,0,0,1-2.8-.655l-16.711-25.887a1.306,1.306,0,0,1-.141-1.12,1.262,1.262,0,0,1,.779-.8Z" transform="translate(70.454 84.516)" fill="#edbb2d"/>
    <g id="Group_20" data-name="Group 20" transform="translate(316.787 379.516)" opacity="0.2">
      <path id="Path_87" data-name="Path 87" d="M277.4,295l10.072,20.074-19.4,4.5a2.024,2.024,0,0,0-1.333.979,2.12,2.12,0,0,0-.187,1.671l2.309,7.309a3.156,3.156,0,0,1-1.291,3.538l-1.519.935a2.05,2.05,0,0,1-2.8-.655l-16.711-25.887a1.306,1.306,0,0,1-.141-1.12,1.262,1.262,0,0,1,.779-.8Z" transform="translate(-246.333 -295)" fill="#fff"/>
    </g>
    <path id="Path_88" data-name="Path 88" d="M255,301.262a59.863,59.863,0,0,0,21.846,1.558l-3.95-7.87Z" transform="translate(74.954 84.488)" opacity="0.2"/>
    <path id="Path_89" data-name="Path 89" d="M281.768,290.97l3.19,2.992c3.251-12.047-2.613-23.58-4.558-38.963l-2.811.81a161.409,161.409,0,0,1,4.178,35.16Z" transform="translate(86.683 62.175)" opacity="0.2"/>
    <path id="Path_90" data-name="Path 90" d="M235.354,346.281l-27.589,10.863L202.6,315.516l27.255-11.206Z" transform="translate(47.747 89.715)" fill="#edbb2d"/>
    <path id="Path_91" data-name="Path 91" d="M235.354,346.281l-27.589,10.863L202.6,315.516l27.255-11.206Z" transform="translate(47.747 89.715)" opacity="0.2"/>
    <path id="Path_92" data-name="Path 92" d="M212.72,341.168c16.423-34.49,32.891-59.348,49.481-62.652l125.654-37.092c30.141-4.676,57.335,4.457,81.415,28.334-4.451,38.745-22.788,59.083-49.1,68.715L290.215,373.508C278.35,376.531,253.982,367.149,212.72,341.168Z" transform="translate(53.001 53.932)" fill="#edbb2d"/>
    <path id="Path_93" data-name="Path 93" d="M190.1,315.367,234.357,294c11.576,7.793,12.807,19.419,9.222,28.583l-44.908,15.164C189.024,331.856,187.049,325.373,190.1,315.367Z" transform="translate(40.571 83.957)" fill="#edbb2d"/>
    <path id="Path_94" data-name="Path 94" d="M199.651,301.149l-18.094,1.668a25.516,25.516,0,0,0-14.995,6.717L110.64,361.4l75.672,6.592a25.238,25.238,0,0,0,11.941-1.855l14.493-6.078a26.341,26.341,0,0,0,15.542-19.232l.577-2.9a27.152,27.152,0,0,0-.714-13.294l-1.641-5.252A26.7,26.7,0,0,0,221.6,310.3h0a25.508,25.508,0,0,0-21.953-9.148Z" transform="translate(0 87.889)" fill="#edbb2d"/>
    <path id="Path_95" data-name="Path 95" d="M199.651,301.149l-18.094,1.668a25.516,25.516,0,0,0-14.995,6.717L110.64,361.4l75.672,6.592a25.238,25.238,0,0,0,11.941-1.855l14.493-6.078a26.341,26.341,0,0,0,15.542-19.232l.577-2.9a27.152,27.152,0,0,0-.714-13.294l-1.641-5.252A26.7,26.7,0,0,0,221.6,310.3h0a25.508,25.508,0,0,0-21.953-9.148Z" transform="translate(0 87.889)" fill="#fff" opacity="0.19"/>
    <path id="Path_96" data-name="Path 96" d="M192.143,309.613l-9.222.857a12.984,12.984,0,0,0-7.6,3.413L146.84,340.3l38.542,3.4a12.888,12.888,0,0,0,6.077-.951l7.383-3.117a13.419,13.419,0,0,0,7.915-9.8l.289-1.481a13.783,13.783,0,0,0-.349-6.764l-.836-2.681a13.634,13.634,0,0,0-2.507-4.676h0a12.962,12.962,0,0,0-11.212-4.613Z" transform="translate(18.796 92.642)" fill="#fff" opacity="0.29"/>
    <path id="Path_97" data-name="Path 97" d="M188.689,313.231l-5.773.53a8.166,8.166,0,0,0-4.77,2.151l-17.805,16.52,24.095,2.12a8.194,8.194,0,0,0,3.813-.592l4.558-1.933a8.4,8.4,0,0,0,4.937-6.141l.182-.919a8.657,8.657,0,0,0-.228-4.224l-.517-1.683a8.534,8.534,0,0,0-1.519-2.883h0a8.134,8.134,0,0,0-6.973-2.946Z" transform="translate(25.805 94.681)" fill="#edbb2d"/>
    <path id="Path_98" data-name="Path 98" d="M212.72,341.216c16.423-34.49,32.891-59.348,50.483-62.948l125.563-37.03c29.154-4.442,56.348,4.753,80.427,28.63-4.451,38.745-22.788,59.083-49.1,68.715L290.139,373.617C278.35,376.578,253.982,367.2,212.72,341.216Z" transform="translate(53.001 53.885)" opacity="0.1"/>
    <path id="Path_99" data-name="Path 99" d="M190.1,315.367,234.357,294c-2.811,12.546,3.327,22.583,9.222,28.583l-44.908,15.164C189.024,331.856,187.049,325.373,190.1,315.367Z" transform="translate(40.571 83.957)" fill="#edbb2d"/>
    <path id="Path_100" data-name="Path 100" d="M185.14,377.015l42.28-16.567,7.657-52.288-31.645,12.5Z" transform="translate(38.681 91.866)" fill="#edbb2d"/>
    <path id="Path_101" data-name="Path 101" d="M185.14,377.015l42.28-16.567,7.657-52.288-31.645,12.5Z" transform="translate(38.681 91.866)" fill="#fff" opacity="0.3"/>
    <path id="Path_102" data-name="Path 102" d="M160.96,290.939l46.078-14.369,37.6,34.022-36.355,15.351Z" transform="translate(26.127 74.222)" fill="#edbb2d"/>
    <path id="Path_103" data-name="Path 103" d="M160.96,290.939l46.078-14.369,37.6,34.022-36.355,15.351Z" transform="translate(26.127 74.222)" fill="#fff" opacity="0.3"/>
    <path id="Path_104" data-name="Path 104" d="M318.361,245.34l6.35-1.87A19.02,19.02,0,0,0,316.766,257c-5.576,30.11,1.732,57.665,20.3,81.526,3.038,3.211,8.006,4.005,12.245,3.74l-5.439,1.465c-5.743.39-8.4-1.559-11.728-4.676-18.7-18.375-26.936-55-20.464-81.635C312.861,251.122,315.717,246.119,318.361,245.34Z" transform="translate(103.247 55.736)" fill="#fff" opacity="0.7"/>
    <path id="Path_105" data-name="Path 105" d="M308.918,248.052,315,246.26c-3.859,1.714-7.11,8.026-7.946,13.466-5.56,30.11,1.793,57.306,20.3,81.526,2.613,2.977,7.885,3.725,12.154,3.475l-5.682,1.481c-5.743.39-8.249-1.013-11.364-4.4-18.7-18.375-26.951-55-20.479-81.635C302.887,253.9,307.111,248.582,308.918,248.052Z" transform="translate(98.212 57.294)" fill="#fff" opacity="0.7"/>
    <path id="Path_106" data-name="Path 106" d="M378.947,260.953c-1.17,3.226-.638,5.689,2.324,7.013l39.211-12.156c5.879-2.478,8.052-4.052-.7-2.914Z" transform="translate(139.01 60.789)" fill="#edbb2d"/>
    <path id="Path_107" data-name="Path 107" d="M378.947,260.953c-1.17,3.226-.638,5.689,2.324,7.013l39.211-12.156c5.879-2.478,8.052-4.052-.7-2.914Z" transform="translate(139.01 60.789)" opacity="0.3"/>
    <path id="Path_108" data-name="Path 108" d="M222.44,336.345c25.173,9.351,53.492,21.928,65.509,18.219l128.283-34.989c16.909-2.572,32.45-36.313,44.179-57.945-13.673,19.918-27.5,49.265-47.6,53.5l-124.864,34.35C273.425,354.424,245.76,342.61,222.44,336.345Z" transform="translate(58.048 65.878)" opacity="0.2"/>
    <path id="Path_109" data-name="Path 109" d="M321.135,247.3a12.511,12.511,0,0,0-4.725,7.715l21.269-6.047c20.038-4.473,55.375,9.086,72.922,20.261-15.192-13.84-52.9-30.578-71.4-26.012Z" transform="translate(106.839 55.165)" fill="#fff" opacity="0.4"/>
    <path id="Path_110" data-name="Path 110" d="M378.65,265.432l1.7,1.792,44.726-14.1Z" transform="translate(139.155 61.125)" opacity="0.3"/>
    <path id="Path_111" data-name="Path 111" d="M289.06,257.541l-1.094,62.153-42.766.234c22.287,8.806,44.513,11.439,50.3,2.572,10.012-17.144,9.571-40.739,3.038-67.78Z" transform="translate(69.866 62.019)" opacity="0.2"/>
    <path id="Path_112" data-name="Path 112" d="M280.77,259.965l33.909-9.725a13.186,13.186,0,0,0-2.461,5.829l-30.384,8.852Z" transform="translate(88.334 59.517)" fill="#e6e6e6" opacity="0.2"/>
    <path id="Path_113" data-name="Path 113" d="M268.254,264.68l-17.182,5.626a35.011,35.011,0,0,0-10.634,8.026l-9.3,11.05,6.4,1.434,7.718-9.226a26.346,26.346,0,0,1,8.462-6.67l16.392-5.969Z" transform="translate(62.565 67.582)" fill="#e0e0e0" opacity="0.2"/>
    <path id="Path_114" data-name="Path 114" d="M233.89,234.318l23.062,18.172,37.175,4.863,23.047-54.673-10.862-15.336L256.952,169.25C244.54,187.36,238.736,209.88,233.89,234.318Z" transform="translate(63.993 14.283)" fill="#edbb2d"/>
    <path id="Path_115" data-name="Path 115" d="M233.89,234.318l23.062,18.172,37.175,4.863,23.047-54.673-10.862-15.336L256.952,169.25C246.211,185.147,238.706,207.278,233.89,234.318Z" transform="translate(63.993 14.283)" fill="#fff" opacity="0.2"/>
    <path id="Path_116" data-name="Path 116" d="M233.89,234.318l23.062,18.157,23.867-60.5c-7.718-4.535-15.663-12.016-23.867-22.723C247.29,182.248,239.709,204.441,233.89,234.318Z" transform="translate(63.993 14.283)" opacity="0.3"/>
    <path id="Path_117" data-name="Path 117" d="M296.4,248.543c3.13,4.676,16.438,62.824-2.37,76.507-13.825,10.052-59.052-6.593-59.052-6.593l.957-14.556s36.461,5.751,40.821,1.87S261.323,266.5,260.275,256.99,296.4,248.543,296.4,248.543Z" transform="translate(64.559 58.549)" fill="#edbb2d"/>
    <path id="Path_118" data-name="Path 118" d="M296.4,248.543c3.13,4.676,16.438,62.824-2.37,76.507-13.825,10.052-59.052-6.593-59.052-6.593l.957-14.556s36.461,5.751,40.821,1.87S261.323,266.5,260.275,256.99,296.4,248.543,296.4,248.543Z" transform="translate(64.559 58.549)" fill="#fff" opacity="0.3"/>
    <path id="Path_119" data-name="Path 119" d="M257.234,286.2l-1.4,22.52-18.914-6.343a1.961,1.961,0,0,0-1.632.185,2.056,2.056,0,0,0-.95,1.374l-1.671,7.481a3.056,3.056,0,0,1-2.886,2.353H228.02a2.105,2.105,0,0,1-2.081-2.026l-1.4-31.03a1.293,1.293,0,0,1,.443-1.041,1.223,1.223,0,0,1,1.076-.268Z" transform="translate(59.138 75.786)" fill="#edbb2d"/>
    <path id="Path_120" data-name="Path 120" d="M303.917,191.64s6.912,34.708,11.637,41.675,28.865,30.344,28.865,30.344l-2.279,7.263s-36.249-23.861-38.74-27.212S284,207.786,284,207.786Z" transform="translate(90.011 26.788)" fill="#edbb2d"/>
    <path id="Path_121" data-name="Path 121" d="M309.109,169.865s-1.975,9.865-9.419,12.032.122-18.983.122-18.983l6.806-1.714Z" transform="translate(96.456 9.787)" fill="#263238"/>
    <path id="Path_160" data-name="Path 160" d="M27.744,0A26.563,26.563,0,0,1,54.786,27.044,28.252,28.252,0,0,1,27.044,54.786,26.563,26.563,0,0,1,0,27.744,28.252,28.252,0,0,1,27.744,0Z" transform="translate(346.8 183.981) rotate(-45)" fill="#263238"/>
    <path id="Path_161" data-name="Path 161" d="M27.744,0A26.563,26.563,0,0,1,54.786,27.044,28.252,28.252,0,0,1,27.044,54.786,26.563,26.563,0,0,1,0,27.744,28.252,28.252,0,0,1,27.744,0Z" transform="translate(346.8 183.981) rotate(-45)" fill="#fff" opacity="0.2"/>
    <path id="Path_122" data-name="Path 122" d="M296.535,187.073a22.451,22.451,0,0,0,13.946-9.351L308.4,176.46a36.692,36.692,0,0,1-13.43,9.351Z" transform="translate(95.707 18.31)" fill="#fff" opacity="0.7"/>
    <path id="Path_123" data-name="Path 123" d="M306.387,177.43l-2.157-1.044a4.423,4.423,0,0,0,.988-2.026l2.021,1.06a3.457,3.457,0,0,1-.851,2.01Z" transform="translate(100.515 17.137)" fill="#fff" opacity="0.7"/>
    <path id="Path_124" data-name="Path 124" d="M278.365,189.833c-1.519,5.72,14.524,13.762,20.145,8.042-3.038-2.353-3.828-4.816-3.449-7.216a11.223,11.223,0,0,1,1.656-4.068,19.9,19.9,0,0,1,1.4-2.026l-6.836-14.525C289.865,176.43,286.705,190.862,278.365,189.833Z" transform="translate(87.033 14.724)" fill="#e4897b"/>
    <path id="Path_125" data-name="Path 125" d="M287.055,174.4c-3.038,7.122,1.519,11.985,3.965,13.824a11.223,11.223,0,0,1,1.656-4.068Z" transform="translate(91.073 17.159)" opacity="0.2"/>
    <path id="Path_126" data-name="Path 126" d="M285.382,185.143a10.7,10.7,0,0,0,10.1,8.338,11.71,11.71,0,0,0,8.31-2.946,9.88,9.88,0,0,0,.911-.888c5.378-5.86,10.634-17.658,5.1-24.936a11.463,11.463,0,0,0-10.421-4.567,11.61,11.61,0,0,0-9.238,6.733C286.37,174.7,283.8,179.112,285.382,185.143Z" transform="translate(90.483 9.159)" fill="#e4897b"/>
    <path id="Path_127" data-name="Path 127" d="M295.039,170.282a1.094,1.094,0,0,0,.076,1.559c.41.234,1,0,1.337-.7s.3-1.294-.091-1.558S295.389,169.705,295.039,170.282Z" transform="translate(95.592 14.42)" fill="#263238"/>
    <path id="Path_128" data-name="Path 128" d="M299.482,172.87a1.127,1.127,0,0,0,.091,1.558c.395.218.987-.093,1.337-.7s.3-1.309-.091-1.559S299.817,172.278,299.482,172.87Z" transform="translate(97.91 15.868)" fill="#263238"/>
    <path id="Path_129" data-name="Path 129" d="M298.986,172a25.238,25.238,0,0,0-.076,6.935,3.935,3.935,0,0,1-3.19-1.138Z" transform="translate(96.096 15.819)" fill="#de5753"/>
    <path id="Path_130" data-name="Path 130" d="M294.431,168.205a.416.416,0,0,0,.425,0,3.164,3.164,0,0,1,2.917.125.4.4,0,0,0,.511-.145.429.429,0,0,0-.055-.541h0a3.922,3.922,0,0,0-3.692-.2.425.425,0,0,0-.228.545h0a.691.691,0,0,0,.122.218Z" transform="translate(95.349 13.068)" fill="#263238"/>
    <path id="Path_131" data-name="Path 131" d="M295.209,179.037h0a6.324,6.324,0,0,1-3.8-4.411.233.233,0,0,1,.182-.265.213.213,0,0,1,.243.171h0a6.093,6.093,0,0,0,3.509,4.1.2.2,0,0,1,.116.106.208.208,0,0,1,.006.159h0a.211.211,0,0,1-.273.125Z" transform="translate(93.858 17.136)" fill="#263238"/>
    <path id="Path_132" data-name="Path 132" d="M302.672,173.527a.334.334,0,0,0,.2.125.388.388,0,0,0,.3-.09.408.408,0,0,0,.142-.284h0a4.166,4.166,0,0,0-1.413-3.507.388.388,0,0,0-.3-.083.393.393,0,0,0-.265.161h0a.428.428,0,0,0,.091.577h0a3.46,3.46,0,0,1,1.063,2.805.438.438,0,0,0,.182.3Z" transform="translate(98.974 14.526)" fill="#263238"/>
    <path id="Path_133" data-name="Path 133" d="M285.409,172.676c1.671-7.7,4.36-13.325,7.049-14.6s9.343,8.167,9.343,8.167a2.98,2.98,0,0,0-3-.585,3.1,3.1,0,0,0-1.978,2.392c-.349,3.429-4.163,7.044-7.2,7.7,0,0,.562-1.278-.608-1.559s-4.117,6.39-3.661,10.536C285.348,184.754,283.677,180.375,285.409,172.676Z" transform="translate(90.335 7.974)" fill="#263238"/>
    <path id="Path_134" data-name="Path 134" d="M284.006,168.56a8.411,8.411,0,0,0,1.99,5.985c1.869,2.166,4.345.826,5.1-1.823.653-2.353.517-6.374-2.005-7.543a3.523,3.523,0,0,0-3.446.263,3.719,3.719,0,0,0-1.643,3.119Z" transform="translate(90.006 11.824)" fill="#e4897b"/>
    <path id="Path_135" data-name="Path 135" d="M288.24,162.37s5.241-6.234,15.466-5.392c12.5,1.075,10.832,18.858,8.705,19.622-1.656.281-.365-7.528-2.142-6.8-1.367,1.044-1.367,1.87-2.8,1.73-.805,0-1.762-1.839-2.719-3.787-1.869-1.995-6.153,4.4-9.328,5.72C292.539,172.641,290.124,166.407,288.24,162.37Z" transform="translate(92.213 7.385)" fill="#263238"/>
    <path id="Path_136" data-name="Path 136" d="M248.943,228.769c-.881,14.744.957,33.43,5.469,44.527l38.193-2.462,13.415-3.99c-2.522-2.665-8.28-16.707-4.36-38.713Z" transform="translate(71.698 47.168)" fill="#edbb2d"/>
    <g id="Group_21" data-name="Group 21" transform="translate(320.427 275.298)" opacity="0.3">
      <path id="Path_137" data-name="Path 137" d="M248.943,228.769c-.881,14.744.957,33.43,5.469,44.527l38.193-2.462,13.415-3.99c-2.826-3.117-8.052-16.692-4.36-38.713Z" transform="translate(-248.729 -228.13)" fill="#fff"/>
    </g>
    <path id="Path_138" data-name="Path 138" d="M277.61,258.216l2.112-7.5,7.459,4.66Z" transform="translate(86.693 59.785)" opacity="0.2"/>
    <path id="Path_139" data-name="Path 139" d="M287.176,170.677l-.486,3.647a6.734,6.734,0,0,0,.395,3.335l.228.577a6.43,6.43,0,0,0,4.968,4.052l2.294.358v1.107l-3.038-.592a6.466,6.466,0,0,1-4.71-3.943l-.532-1.325a6.752,6.752,0,0,1-.365-3.756l.684-3.647Z" transform="translate(90.952 14.975)" fill="#263238"/>
    <path id="Path_140" data-name="Path 140" d="M287.176,170.677l-.486,3.647a6.734,6.734,0,0,0,.395,3.335l.228.577a6.43,6.43,0,0,0,4.968,4.052l2.294.358v1.107l-3.038-.592a6.466,6.466,0,0,1-4.71-3.943l-.532-1.325a6.752,6.752,0,0,1-.365-3.756l.684-3.647Z" transform="translate(90.952 14.975)" fill="#fff" opacity="0.2"/>
    <rect id="Rectangle_51" data-name="Rectangle 51" width="3.388" height="2.93" rx="0.58" transform="translate(384.767 196.967)" fill="#263238"/>
    <rect id="Rectangle_52" data-name="Rectangle 52" width="3.114" height="5.377" rx="0.63" transform="translate(376.381 180.774)" fill="#263238"/>
    <path id="Path_141" data-name="Path 141" d="M303.917,191.64s6.912,34.708,11.637,41.675,29.944,31.4,29.944,31.4l-4.3,5.517s-35.276-23.175-37.768-26.495S284,207.786,284,207.786Z" transform="translate(90.011 26.788)" fill="#fff" opacity="0.15"/>
    <path id="Path_142" data-name="Path 142" d="M289.763,207.41l5.56,17.237-6.973-13.029Z" transform="translate(92.27 35.596)" opacity="0.2"/>
    <path id="Path_143" data-name="Path 143" d="M248.69,258.89l52.124,3.4s6.077-48.828,22.788-64.476l-8.584-7.247-22.788-8.1s-11.637-.327-18.474,1.169a73.054,73.054,0,0,0-5.773,8.447,126.17,126.17,0,0,0-8.872,17.954A148.561,148.561,0,0,0,248.69,258.89Z" transform="translate(71.678 21.644)" fill="#edbb2d"/>
    <path id="Path_144" data-name="Path 144" d="M295.017,250.141l-16.711-12.156c-3.038-2.992-11.516-23.861-17.866-37.685l35.61,44.012Z" transform="translate(77.778 31.625)" opacity="0.2"/>
    <path id="Path_145" data-name="Path 145" d="M271.93,182.5h1.914l33.879,12.063,1.413,1.184h0a4.63,4.63,0,0,1-2.34,2.572l-1.96.966C292.409,194.641,280.833,190.183,271.93,182.5Z" transform="translate(83.744 21.683)" fill="#263238" opacity="0.2"/>
    <path id="Path_146" data-name="Path 146" d="M280.7,192.009s9.434,33.742,14.159,40.708,36.659,39.041,36.659,39.041l-5.1,5.907s-42.4-29.16-44.893-32.511-20.631-35.55-20.631-35.55C256.024,195.874,273.647,174.461,280.7,192.009Z" transform="translate(77.576 23.302)" fill="#edbb2d"/>
    <path id="Path_147" data-name="Path 147" d="M280.7,192.009s9.434,33.742,14.159,40.708,36.659,39.041,36.659,39.041l-5.1,5.907s-42.4-29.16-44.893-32.511-20.631-35.55-20.631-35.55C256.024,195.874,273.647,174.461,280.7,192.009Z" transform="translate(77.576 23.302)" fill="#fff" opacity="0.15"/>
    <path id="Path_148" data-name="Path 148" d="M263.57,203l3.464,7.294c1.519-5.86,4.254-9.351,8.325-10.317l-4.041-8.338A18.377,18.377,0,0,0,263.57,203Z" transform="translate(79.404 26.788)" fill="#edbb2d"/>
    <g id="Group_22" data-name="Group 22" transform="translate(283.677 355.156)" opacity="0.2">
      <path id="Path_149" data-name="Path 149" d="M257.234,286.2l-1.4,22.52-18.914-6.343a1.961,1.961,0,0,0-1.632.185,2.056,2.056,0,0,0-.95,1.374l-1.671,7.481a3.056,3.056,0,0,1-2.886,2.353H228.02a2.105,2.105,0,0,1-2.081-2.026l-1.4-31.03a1.293,1.293,0,0,1,.443-1.041,1.223,1.223,0,0,1,1.076-.268Z" transform="translate(-224.539 -279.37)" fill="#fff"/>
    </g>
    <path id="Path_150" data-name="Path 150" d="M304.9,231.88,292.21,245.065l17.82,8.276,4.1,9.585a1.191,1.191,0,0,0,.862.7,1.166,1.166,0,0,0,1.053-.327l8.857-8.946a1.141,1.141,0,0,0-.076-1.683l-8.28-7.06Z" transform="translate(94.274 49.262)" fill="#edbb2d"/>
    <path id="Path_151" data-name="Path 151" d="M304.9,231.88,292.21,245.065l17.82,8.276,4.1,9.585a1.191,1.191,0,0,0,.862.7,1.166,1.166,0,0,0,1.053-.327l8.857-8.946a1.141,1.141,0,0,0-.076-1.683l-8.28-7.06Z" transform="translate(94.274 49.262)" fill="#fff" opacity="0.3"/>
    <path id="Path_152" data-name="Path 152" d="M308.92,242.956l12.7-14.416L332.893,241.9l7.733,4.021a.915.915,0,0,1,.448.569.94.94,0,0,1-.1.724l-.213.374-13.126,3.429-.942-1.153Z" transform="translate(102.95 47.397)" fill="#edbb2d"/>
    <g id="Group_23" data-name="Group 23" transform="translate(411.87 275.937)" opacity="0.3">
      <path id="Path_153" data-name="Path 153" d="M308.92,242.956l12.7-14.416L332.893,241.9l7.733,4.021a.915.915,0,0,1,.448.569.94.94,0,0,1-.1.724l-.213.374-13.126,3.429-.942-1.153Z" transform="translate(-308.92 -228.54)" fill="#fff"/>
    </g>
    <path id="Path_154" data-name="Path 154" d="M328.722,179.5a27.747,27.747,0,0,0-17.015-25.8,26.564,26.564,0,0,0-29.659,6.686,28.288,28.288,0,0,0-4.9,30.743l-1.094-.9c-2.613,1.559-3.98,4.192-3.889,8.167a95.865,95.865,0,0,0,32.967,16.489,11.583,11.583,0,0,0,3.889-8.167l-1.139-.249A27.6,27.6,0,0,0,328.722,179.5Zm-22.788,23.082a19.611,19.611,0,1,1,.061,0Z" transform="translate(83.862 4.489)" fill="#edbb2d"/>
    <path id="Path_155" data-name="Path 155" d="M328.722,179.5a27.747,27.747,0,0,0-17.015-25.8,26.564,26.564,0,0,0-29.659,6.686,28.288,28.288,0,0,0-4.9,30.743l-1.094-.9c-2.613,1.559-3.98,4.192-3.889,8.167a95.865,95.865,0,0,0,32.967,16.489,11.583,11.583,0,0,0,3.889-8.167l-1.139-.249A27.6,27.6,0,0,0,328.722,179.5Zm-22.788,23.082a19.611,19.611,0,1,1,.061,0Z" transform="translate(83.862 4.489)" fill="#fff" opacity="0.3"/>
    <path id="Path_156" data-name="Path 156" d="M276.974,182.647l8.173,5.424c-6.077-4.52-9.556-11.128-10.224-20.12a26.665,26.665,0,0,0,2.051,14.7Z" transform="translate(85.157 13.557)" opacity="0.2"/>
    <path id="Path_157" data-name="Path 157" d="M296,154.419a27.81,27.81,0,0,1,18.231,16.66,29.615,29.615,0,0,0-15.42-17.44Z" transform="translate(96.242 5.565)" fill="#fff" opacity="0.2"/>
    <path id="Path_158" data-name="Path 158" d="M298.509,153.661l-2.689,1.091-2.34-.436.608-1.886a9.416,9.416,0,0,1,4.421,1.231Z" transform="translate(94.933 4.889)" fill="#fff" opacity="0.2"/>
    <path id="Path_159" data-name="Path 159" d="M246.345,285.38l-1.155,17.346.957.265,1.291-17.5Z" transform="translate(69.86 79.143)" fill="#263238" opacity="0.2"/>
  </g>
</svg>
